<svg width="13" height="13" viewBox="0 0 13 13" fill="none" xmlns="http://www.w3.org/2000/svg">
<g opacity="0.7">
<path opacity="0.7" d="M11.5765 6.80078C11.5765 9.77489 9.12759 12.2008 6.08824 12.2008C3.04888 12.2008 0.6 9.77489 0.6 6.80078C0.6 3.82667 3.04888 1.40078 6.08824 1.40078C9.12759 1.40078 11.5765 3.82667 11.5765 6.80078Z" stroke="white" stroke-width="1.2"/>
<path opacity="0.7" d="M6.75919 3.91276C6.75919 3.54457 6.45633 3.24609 6.08272 3.24609C5.70912 3.24609 5.40625 3.54457 5.40625 3.91276C5.40625 4.28095 5.70912 4.57943 6.08272 4.57943C6.45633 4.57943 6.75919 4.28095 6.75919 3.91276Z" fill="white"/>
<path opacity="0.7" d="M6.75919 6.13151C6.75919 5.76332 6.45633 5.46484 6.08272 5.46484C5.70912 5.46484 5.40625 5.76332 5.40625 6.13151V9.68707C5.40625 10.0553 5.70912 10.3537 6.08272 10.3537C6.45633 10.3537 6.75919 10.0553 6.75919 9.68707V6.13151Z" fill="white"/>
</g>
</svg>
